<?xml version="1.0" encoding="utf-8"?>
<!-- Generator: Adobe Illustrator 19.0.0, SVG Export Plug-In . SVG Version: 6.00 Build 0)  -->
<svg version="1.1" id="Layer_1" xmlns="http://www.w3.org/2000/svg" xmlns:xlink="http://www.w3.org/1999/xlink" x="0px" y="0px"
	 viewBox="0 0 256 256" style="enable-background:new 0 0 256 256;" xml:space="preserve">
<style type="text/css">
	.st0{fill:#FFFFFF;}
	.st1{clip-path:url(#XMLID_29_);fill:#941D81;}
	.st2{clip-path:url(#XMLID_30_);fill:#941D81;}
	.st3{clip-path:url(#XMLID_33_);fill:#941D81;}
	.st4{clip-path:url(#XMLID_34_);fill:#941D81;}
	.st5{clip-path:url(#XMLID_35_);fill:#941D81;}
	.st6{clip-path:url(#XMLID_38_);fill:#941D81;}
</style>
<path id="XMLID_12_" class="st0" d="M247,256H11c-5.5,0-10-4.5-10-10V10C1,4.5,5.5,0,11,0h236c5.5,0,10,4.5,10,10v236
	C257,251.5,252.5,256,247,256z"/>
<g id="XMLID_1_">
	<g id="XMLID_21_">
		<g id="XMLID_45_">
			<defs>
				<path id="XMLID_46_" d="M20.9,97.7V67.3h18.7l0,30.4H20.9z M39.6,63.5H20.9c-2.1,0-3.7,1.7-3.7,3.8v30.4c0,2.1,1.7,3.8,3.7,3.8
					h18.7c2.1,0,3.7-1.7,3.7-3.8V67.3C43.3,65.2,41.6,63.5,39.6,63.5z"/>
			</defs>
			<use xlink:href="#XMLID_46_"  style="overflow:visible;fill:#941D81;"/>
			<clipPath id="XMLID_29_">
				<use xlink:href="#XMLID_46_"  style="overflow:visible;"/>
			</clipPath>
			<rect id="XMLID_20_" x="13.4" y="59.7" class="st1" width="33.6" height="45.5"/>
		</g>
		<g id="XMLID_42_">
			<defs>
				<ellipse id="XMLID_16_" cx="30.2" cy="93.9" rx="1.9" ry="1.9"/>
			</defs>
			<use xlink:href="#XMLID_16_"  style="overflow:visible;fill:#941D81;"/>
			<clipPath id="XMLID_30_">
				<use xlink:href="#XMLID_16_"  style="overflow:visible;"/>
			</clipPath>
			<rect id="XMLID_17_" x="24.6" y="88.2" class="st2" width="11.2" height="11.3"/>
		</g>
	</g>
	<g id="XMLID_22_">
		<g id="XMLID_36_">
			<defs>
				<path id="XMLID_37_" d="M83.5,90.1c0,1.5,1.2,2.7,2.7,2.7c1.5,0,2.7-1.2,2.7-2.7c0-1.5-1.2-2.7-2.7-2.7
					C84.7,87.4,83.5,88.6,83.5,90.1z M104.9,97.1H67.5V46.3h37.4V97.1z M105.4,41.4H67c-2.4,0-4.3,1.9-4.3,4.3v51.9
					c0,2.4,1.9,4.3,4.3,4.3h38.4c2.4,0,4.3-1.9,4.3-4.3V45.7C109.7,43.3,107.8,41.4,105.4,41.4z"/>
			</defs>
			<use xlink:href="#XMLID_37_"  style="overflow:visible;fill:#941D81;"/>
			<clipPath id="XMLID_33_">
				<use xlink:href="#XMLID_37_"  style="overflow:visible;"/>
			</clipPath>
			<rect id="XMLID_15_" x="58.9" y="37.6" class="st3" width="54.6" height="68.2"/>
		</g>
	</g>
	<g id="XMLID_25_">
		<g id="XMLID_31_">
			<defs>
				<path id="XMLID_32_" d="M138.2,24.7h84.3v53.8h-84.3V24.7z M136.3,86.2h88.2c3.2,0,5.7-2.6,5.7-5.8V22.8c0-3.2-2.6-5.8-5.7-5.8
					h-88.2c-3.2,0-5.7,2.6-5.7,5.8v57.6C130.6,83.6,133.1,86.1,136.3,86.2z"/>
			</defs>
			<use xlink:href="#XMLID_32_"  style="overflow:visible;fill:#941D81;"/>
			<clipPath id="XMLID_34_">
				<use xlink:href="#XMLID_32_"  style="overflow:visible;"/>
			</clipPath>
			<rect id="XMLID_8_" x="126.7" y="13.1" class="st4" width="107.4" height="76.9"/>
		</g>
		<g id="XMLID_28_">
			<defs>
				<rect id="XMLID_4_" x="122.9" y="93.8" width="115" height="7.7"/>
			</defs>
			<use xlink:href="#XMLID_4_"  style="overflow:visible;fill:#941D81;"/>
			<clipPath id="XMLID_35_">
				<use xlink:href="#XMLID_4_"  style="overflow:visible;"/>
			</clipPath>
			<rect id="XMLID_5_" x="119" y="89.9" class="st5" width="122.8" height="15.5"/>
		</g>
	</g>
	<g id="XMLID_2_">
		<g id="XMLID_3_">
			<defs>
				<path id="XMLID_23_" d="M197.4,203.5H51.5v-72.3h145.9V203.5z M200.2,123H48.7c-4.6,0-8.4,2.8-8.4,6.2v76.4
					c0,3.4,3.8,6.2,8.4,6.2h70.1v18.6H90.8v8.3h67.3v-8.3H130v-18.6h70.1c4.6,0,8.4-2.8,8.4-6.2v-76.4
					C208.6,125.8,204.8,123,200.2,123z"/>
			</defs>
			<use xlink:href="#XMLID_23_"  style="overflow:visible;fill:#941D81;"/>
			<clipPath id="XMLID_38_">
				<use xlink:href="#XMLID_23_"  style="overflow:visible;"/>
			</clipPath>
			<rect id="XMLID_14_" x="36.9" y="119.6" class="st6" width="175.1" height="122.4"/>
		</g>
	</g>
</g>
</svg>
